<?xml version="1.0" encoding="utf-8"?>
<!-- Generator: Adobe Illustrator 20.0.0, SVG Export Plug-In . SVG Version: 6.00 Build 0)  -->
<svg version="1.1" id="Capa_1" xmlns="http://www.w3.org/2000/svg" xmlns:xlink="http://www.w3.org/1999/xlink" x="0px" y="0px"
	 viewBox="0 0 310 310" style="enable-background:new 0 0 310 310;" xml:space="preserve">
<style type="text/css">
	.st0{fill:#1D1D1B;}
</style>
<g>
	<g>
		<path class="st0" d="M250.1,10v19.3c0,2.8,2.2,5,5,5h24.1c11,0,19.9,8.9,19.9,19.9v225.9c0,11-8.9,19.9-19.9,19.9H30.8
			c-11,0-19.9-8.9-19.9-19.9V54.2c0-11,8.9-19.9,19.9-19.9h24.1c2.8,0,5-2.2,5-5V10h32v19.3c0,2.8,2.2,5,5,5h116.2c2.8,0,5-2.2,5-5
			V10H250.1 M38.6,275.9h233c2.8,0,5-2.2,5-5V105.1c0-2.8-2.2-5-5-5h-233c-2.8,0-5,2.2-5,5v165.8C33.6,273.6,35.9,275.9,38.6,275.9
			 M255.1,5h-42v24.3H96.9V5h-42v24.3H30.8C17,29.3,5.9,40.4,5.9,54.2v225.9C5.9,293.9,17,305,30.8,305h248.4
			c13.7,0,24.9-11.1,24.9-24.9V54.2c0-13.7-11.1-24.9-24.9-24.9h-24.1V5L255.1,5z M38.6,270.9V105.1h233v165.8H38.6L38.6,270.9z"/>
	</g>
	<g>
		<path class="st0" d="M236.6,171.8v64.7h-64.7v-64.7H236.6 M241.6,166.8h-74.7v74.7h74.7V166.8L241.6,166.8z"/>
	</g>
</g>
</svg>
