<?xml version="1.0" encoding="utf-8"?>
<!-- Generator: Adobe Illustrator 20.0.0, SVG Export Plug-In . SVG Version: 6.00 Build 0)  -->
<svg version="1.1" id="Capa_1" xmlns="http://www.w3.org/2000/svg" xmlns:xlink="http://www.w3.org/1999/xlink" x="0px" y="0px"
	 viewBox="0 0 320 320" style="enable-background:new 0 0 320 320;" xml:space="preserve">
<g>
	<path d="M289.3,14.9c4.2,0,8.2,1.6,11.2,4.6s4.6,6.9,4.5,11.1v88.7c0,1.4-0.6,2.8-1.6,3.8L126.3,300.3c-3,3-6.9,4.6-11.1,4.6
		s-8.2-1.6-11.1-4.6l-84.4-84.4c-6.1-6.1-6.1-16.1,0-22.3L196.8,16.5c1-1,2.4-1.6,3.8-1.6H289.3 M252.3,95.8c1,0,2.1-0.1,3.1-0.2
		c13-1.4,23.4-11.9,24.8-24.9c0.8-8-1.8-15.9-7.1-21.9c-5.3-5.9-12.9-9.3-20.8-9.3c-1,0-2.1,0.1-3.1,0.2
		c-13,1.3-23.5,11.8-24.9,24.9c-0.8,8,1.8,15.9,7.1,21.9C236.9,92.3,244.4,95.8,252.3,95.8 M289.3,9.9h-88.6c-2.7,0-5.4,1.1-7.4,3
		L16.1,190.1c-8.1,8.1-8.1,21.3,0,29.4l84.4,84.4c4,4,9.4,6.1,14.7,6.1s10.6-2,14.7-6.1L307,126.8c1.9-1.9,3-4.6,3-7.4V30.7
		C310.1,19.2,300.8,9.9,289.3,9.9L289.3,9.9z M252.3,90.8c-13.5,0-24.3-11.7-22.9-25.6c1.2-10.7,9.7-19.3,20.4-20.4
		c0.9-0.1,1.7-0.1,2.6-0.1c13.5,0,24.3,11.7,22.9,25.6c-1.2,10.7-9.7,19.3-20.4,20.4C254,90.6,253.2,90.8,252.3,90.8L252.3,90.8z"/>
</g>
</svg>
