<?xml version="1.0" encoding="utf-8"?>
<!-- Generator: Adobe Illustrator 20.0.0, SVG Export Plug-In . SVG Version: 6.00 Build 0)  -->
<svg version="1.1" id="Capa_1" xmlns="http://www.w3.org/2000/svg" xmlns:xlink="http://www.w3.org/1999/xlink" x="0px" y="0px"
	 viewBox="0 0 320 320" style="enable-background:new 0 0 320 320;" xml:space="preserve">
<path d="M289.2,10h-88.6c-2.7,0-5.4,1.1-7.4,3L16,190.2c-8.1,8.1-8.1,21.3,0,29.4l84.4,84.4c8.1,8.1,21.3,8.1,29.4,0l177.1-177.1
	c1.9-1.9,3-4.6,3-7.4V30.8C310,19.3,300.7,10,289.2,10z M254.8,90.6c-14.7,1.6-27-10.7-25.5-25.5c1.2-10.7,9.7-19.3,20.4-20.4
	c14.7-1.6,27,10.7,25.5,25.5C274.1,80.9,265.5,89.5,254.8,90.6z"/>
</svg>
