<?xml version="1.0" encoding="utf-8"?>
<!-- Generator: Adobe Illustrator 20.0.0, SVG Export Plug-In . SVG Version: 6.00 Build 0)  -->
<svg version="1.1" id="Capa_1" xmlns="http://www.w3.org/2000/svg" xmlns:xlink="http://www.w3.org/1999/xlink" x="0px" y="0px"
	 viewBox="0 0 310 310" style="enable-background:new 0 0 310 310;" xml:space="preserve">
<style type="text/css">
	.st0{fill:#1D1D1B;}
</style>
<g>
	<path class="st0" d="M155,22.7l143.8,148.6h-30.2h-5v5v112.3h-73.4v-88.9c0-5-4.1-9.2-9.2-9.2h-54.2c-5,0-9.2,4.1-9.2,9.2v88.9h-76
		V176.3v-5h-5H11.2L155,22.7 M155,17.3c-1.1,0-2.2,0.4-3,1.3L6.2,169.2c-2.5,2.6-0.7,7,3,7h27.6v113.2c0,2.3,1.9,4.2,4.2,4.2h77.7
		c2.3,0,4.2-1.9,4.2-4.2v-89.8c0-2.3,1.9-4.2,4.2-4.2H181c2.3,0,4.2,1.9,4.2,4.2v89.8c0,2.3,1.9,4.2,4.2,4.2h75.1
		c2.3,0,4.2-1.9,4.2-4.2V176.3h32.2c3.7,0,5.5-4.4,3-7L158,18.6C157.2,17.7,156.1,17.3,155,17.3L155,17.3z"/>
</g>
</svg>
