<?xml version="1.0" encoding="utf-8"?>
<!-- Generator: Adobe Illustrator 20.0.0, SVG Export Plug-In . SVG Version: 6.00 Build 0)  -->
<svg version="1.1" id="Capa_1" xmlns="http://www.w3.org/2000/svg" xmlns:xlink="http://www.w3.org/1999/xlink" x="0px" y="0px"
	 viewBox="0 0 310 310" style="enable-background:new 0 0 310 310;" xml:space="preserve">
<style type="text/css">
	.st0{fill:#1D1D1B;}
</style>
<path class="st0" d="M152,18.6L6.2,169.2c-2.5,2.6-0.7,7,3,7h27.6v113.2c0,2.3,1.9,4.2,4.2,4.2h77.7c2.3,0,4.2-1.9,4.2-4.2v-89.8
	c0-2.3,1.9-4.2,4.2-4.2H181c2.3,0,4.2,1.9,4.2,4.2v89.8c0,2.3,1.9,4.2,4.2,4.2h75.1c2.3,0,4.2-1.9,4.2-4.2V176.3h32.2
	c3.7,0,5.5-4.4,3-7L158,18.6C156.4,16.9,153.6,16.9,152,18.6z"/>
</svg>
