<?xml version="1.0" encoding="utf-8"?>
<!-- Generator: Adobe Illustrator 20.0.0, SVG Export Plug-In . SVG Version: 6.00 Build 0)  -->
<svg version="1.1" id="Capa_1" xmlns="http://www.w3.org/2000/svg" xmlns:xlink="http://www.w3.org/1999/xlink" x="0px" y="0px"
	 viewBox="0 0 320 320" style="enable-background:new 0 0 320 320;" xml:space="preserve">
<g id="Settings">
	<g>
		<path d="M309,143.4c-0.5-4.2-5.4-7.4-9.6-7.4c-13.7,0-25.9-8.1-31.1-20.6c-5.2-12.8-1.9-27.7,8.4-37.1c3.2-2.9,3.6-7.9,0.9-11.3
			c-7-8.9-15-17-23.8-24c-3.4-2.7-8.4-2.4-11.4,0.9c-8.9,9.9-25,13.6-37.4,8.4c-12.9-5.4-21.1-18.5-20.3-32.6c0.3-4.4-3-8.2-7.4-8.8
			c-11.2-1.3-22.5-1.3-33.7-0.1c-4.3,0.5-7.6,4.2-7.4,8.6c0.5,13.9-7.8,26.8-20.5,32c-12.3,5-28.2,1.4-37.1-8.5
			c-2.9-3.2-7.9-3.6-11.3-1C58.3,49,50.1,57,43,65.9c-2.8,3.4-2.4,8.4,0.9,11.4c10.4,9.5,13.8,24.5,8.4,37.4
			C47.1,127,34.3,135,19.7,135c-4.8-0.2-8.1,3-8.7,7.4c-1.3,11.3-1.3,22.8-0.1,34.1c0.5,4.2,5.5,7.4,9.8,7.4
			c13.1-0.3,25.6,7.8,30.9,20.6c5.2,12.8,1.9,27.7-8.4,37.1c-3.2,2.9-3.6,7.9-0.9,11.3c7,8.9,15,17,23.7,24
			c3.4,2.8,8.4,2.4,11.4-0.9c9-9.9,25-13.6,37.4-8.4c12.9,5.4,21.1,18.5,20.3,32.6c-0.3,4.4,3,8.3,7.4,8.8c5.7,0.7,11.5,1,17.3,1
			c5.5,0,11-0.3,16.5-0.9c4.4-0.5,7.6-4.2,7.4-8.6c-0.5-13.9,7.8-26.8,20.5-32c12.3-5,28.2-1.4,37.1,8.5c3,3.2,7.9,3.6,11.3,0.9
			c9-7,17.1-15.1,24.3-24c2.8-3.4,2.4-8.4-0.9-11.4c-10.4-9.5-13.8-24.5-8.4-37.4c5.1-12.2,17.4-20.3,30.7-20.3h1.9
			c4.3,0.3,8.3-3,8.8-7.4C310.2,166.3,310.2,154.8,309,143.4z M160.1,210.5c-27.6,0-50-22.4-50-50s22.4-50,50-50s50,22.4,50,50
			C210.2,188,187.7,210.5,160.1,210.5z"/>
	</g>
</g>
</svg>
