<?xml version="1.0" encoding="utf-8"?>
<!-- Generator: Adobe Illustrator 20.0.0, SVG Export Plug-In . SVG Version: 6.00 Build 0)  -->
<svg version="1.1" id="Capa_1" xmlns="http://www.w3.org/2000/svg" xmlns:xlink="http://www.w3.org/1999/xlink" x="0px" y="0px"
	 viewBox="0 0 320 320" style="enable-background:new 0 0 320 320;" xml:space="preserve">
<style type="text/css">
	.st0{fill:none;stroke:#000000;stroke-width:5;stroke-linecap:round;stroke-miterlimit:10;}
</style>
<g>
	<g>
		<path d="M31.9,143.1c9.3,0,16.9,7.6,16.9,16.9c0,9.3-7.6,16.9-16.9,16.9S15,169.3,15,160S22.6,143.1,31.9,143.1 M31.9,138.1
			c-12.1,0-21.9,9.8-21.9,21.9c0,12.1,9.8,21.9,21.9,21.9s21.9-9.8,21.9-21.9C53.8,147.9,44,138.1,31.9,138.1L31.9,138.1z"/>
	</g>
	<g>
		<path d="M31.9,46.2c9.3,0,16.9,7.6,16.9,16.9S41.2,80,31.9,80S15,72.4,15,63.1S22.6,46.2,31.9,46.2 M31.9,41.2
			C19.8,41.2,10,51,10,63.1S19.8,85,31.9,85s21.9-9.8,21.9-21.9S44,41.2,31.9,41.2L31.9,41.2z"/>
	</g>
	<g>
		<path d="M31.9,240c9.3,0,16.9,7.6,16.9,16.9s-7.6,16.9-16.9,16.9S15,266.2,15,256.9C15,247.6,22.6,240,31.9,240 M31.9,235
			c-12.1,0-21.9,9.8-21.9,21.9c0,12.1,9.8,21.9,21.9,21.9s21.9-9.8,21.9-21.9C53.8,244.8,44,235,31.9,235L31.9,235z"/>
	</g>
	<line class="st0" x1="97.1" y1="63.1" x2="310" y2="63.1"/>
	<line class="st0" x1="97.1" y1="160" x2="310" y2="160"/>
	<line class="st0" x1="97.1" y1="256.9" x2="310" y2="256.9"/>
</g>
</svg>
