<?xml version="1.0" encoding="utf-8"?>
<!-- Generator: Adobe Illustrator 20.0.0, SVG Export Plug-In . SVG Version: 6.00 Build 0)  -->
<svg version="1.1" id="Capa_1" xmlns="http://www.w3.org/2000/svg" xmlns:xlink="http://www.w3.org/1999/xlink" x="0px" y="0px"
	 viewBox="0 0 320 320" style="enable-background:new 0 0 320 320;" xml:space="preserve">
<g>
	<path d="M156.8,15c2.9,0,5.2,2.3,5.2,5.2v20.6c0,2.8,2.2,5,5,5h90v57.8h-90c-2.8,0-5,2.2-5,5V139c0,2.8,2.2,5,5,5h83.5l41.5,28.9
		l-41.5,28.9h-83.5c-2.8,0-5,2.2-5,5v93c0,2.9-2.3,5.2-5.2,5.2c-2.9,0-5.2-2.3-5.2-5.2v-93c0-2.8-2.2-5-5-5H63.1V144h83.5
		c2.8,0,5-2.2,5-5v-30.5c0-2.8-2.2-5-5-5h-77L28.1,74.6l41.5-28.9h77c2.8,0,5-2.2,5-5V20.2C151.6,17.3,153.9,15,156.8,15 M156.8,10
		c-5.6,0-10.2,4.6-10.2,10.2v20.6H68L19.4,74.6L68,108.5h78.5V139H58.1v67.8h88.5v93c0,5.6,4.6,10.2,10.2,10.2
		c5.6,0,10.2-4.6,10.2-10.2v-93h85l48.6-33.9L252,139h-85v-30.5h95V40.7h-95V20.2C166.9,14.6,162.4,10,156.8,10L156.8,10z"/>
</g>
</svg>
